<mxfile modified="2023-03-15T21:57:48.888Z" host="Electron" agent="5.0 (Windows NT 10.0; Win64; x64) AppleWebKit/537.36 (KHTML, like Gecko) draw.io/20.3.0 Chrome/104.0.5112.114 Electron/20.1.3 Safari/537.36" etag="vGLmwowaijpnqajtXUWn" compressed="false" version="20.3.0" type="device">
  <diagram name="Monitoring Stakeholder Desired Functionality" id="iV7sHr61-wyOgb9qSyuG">
    <mxGraphModel dx="782" dy="517" grid="1" gridSize="10" guides="1" tooltips="1" connect="1" arrows="1" fold="1" page="1" pageScale="1" pageWidth="827" pageHeight="1169" math="0" shadow="0">
      <root>
        <mxCell id="U9TDEoEnXub9O5fyCvV4-0" />
        <mxCell id="U9TDEoEnXub9O5fyCvV4-1" parent="U9TDEoEnXub9O5fyCvV4-0" />
        <mxCell id="U9TDEoEnXub9O5fyCvV4-4" value="Base System Logical Module" style="rounded=1;whiteSpace=wrap;html=1;strokeWidth=1;fillColor=none;dashed=1;absoluteArcSize=1;arcSize=8;container=1;collapsible=0;recursiveResize=0;align=left;verticalAlign=top;" parent="U9TDEoEnXub9O5fyCvV4-1" vertex="1">
          <mxGeometry x="120" y="130" width="430" height="510" as="geometry" />
        </mxCell>
        <mxCell id="U9TDEoEnXub9O5fyCvV4-5" value="" style="fontStyle=1;align=center;verticalAlign=top;childLayout=stackLayout;horizontal=1;horizontalStack=0;resizeParent=1;resizeParentMax=0;resizeLast=0;marginBottom=0;strokeColor=#d6b656;strokeWidth=2;fillColor=none;" parent="U9TDEoEnXub9O5fyCvV4-4" vertex="1">
          <mxGeometry x="10" y="90" width="130" height="53" as="geometry" />
        </mxCell>
        <mxCell id="U9TDEoEnXub9O5fyCvV4-6" value="Diagnostic &lt;br&gt;Logging" style="html=1;align=left;spacingLeft=4;verticalAlign=middle;strokeColor=none;fillColor=none;fontStyle=1" parent="U9TDEoEnXub9O5fyCvV4-5" vertex="1">
          <mxGeometry width="130" height="20" as="geometry" />
        </mxCell>
        <mxCell id="U9TDEoEnXub9O5fyCvV4-7" value="" style="shape=ellipse;" parent="U9TDEoEnXub9O5fyCvV4-6" vertex="1">
          <mxGeometry x="1" width="20" height="16" relative="1" as="geometry">
            <mxPoint x="-25" y="7" as="offset" />
          </mxGeometry>
        </mxCell>
        <mxCell id="U9TDEoEnXub9O5fyCvV4-8" value="" style="line;strokeWidth=1;fillColor=none;align=left;verticalAlign=middle;spacingTop=-1;spacingLeft=3;spacingRight=3;rotatable=0;labelPosition=right;points=[];portConstraint=eastwest;" parent="U9TDEoEnXub9O5fyCvV4-5" vertex="1">
          <mxGeometry y="20" width="130" height="8" as="geometry" />
        </mxCell>
        <mxCell id="U9TDEoEnXub9O5fyCvV4-9" value="." style="html=1;align=center;spacingLeft=4;verticalAlign=top;strokeColor=none;fillColor=none;" parent="U9TDEoEnXub9O5fyCvV4-5" vertex="1">
          <mxGeometry y="28" width="130" height="25" as="geometry" />
        </mxCell>
        <mxCell id="U9TDEoEnXub9O5fyCvV4-10" value="&amp;lt;&amp;lt;actor&amp;gt;&amp;gt;&lt;br&gt;&lt;br&gt;&lt;b&gt;User&lt;/b&gt;" style="text;html=1;align=center;verticalAlign=middle;dashed=0;strokeColor=#000000;strokeWidth=2;" parent="U9TDEoEnXub9O5fyCvV4-4" vertex="1">
          <mxGeometry x="170" y="210" width="80" height="50" as="geometry" />
        </mxCell>
        <mxCell id="U9TDEoEnXub9O5fyCvV4-11" value="" style="fontStyle=1;align=center;verticalAlign=top;childLayout=stackLayout;horizontal=1;horizontalStack=0;resizeParent=1;resizeParentMax=0;resizeLast=0;marginBottom=0;strokeColor=#d6b656;strokeWidth=2;fillColor=none;" parent="U9TDEoEnXub9O5fyCvV4-4" vertex="1">
          <mxGeometry x="10" y="150" width="130" height="53" as="geometry" />
        </mxCell>
        <mxCell id="U9TDEoEnXub9O5fyCvV4-12" value="Error &lt;br&gt;Logging" style="html=1;align=left;spacingLeft=4;verticalAlign=middle;strokeColor=none;fillColor=none;fontStyle=1" parent="U9TDEoEnXub9O5fyCvV4-11" vertex="1">
          <mxGeometry width="130" height="20" as="geometry" />
        </mxCell>
        <mxCell id="U9TDEoEnXub9O5fyCvV4-13" value="" style="shape=ellipse;" parent="U9TDEoEnXub9O5fyCvV4-12" vertex="1">
          <mxGeometry x="1" width="20" height="16" relative="1" as="geometry">
            <mxPoint x="-25" y="7" as="offset" />
          </mxGeometry>
        </mxCell>
        <mxCell id="U9TDEoEnXub9O5fyCvV4-14" value="" style="line;strokeWidth=1;fillColor=none;align=left;verticalAlign=middle;spacingTop=-1;spacingLeft=3;spacingRight=3;rotatable=0;labelPosition=right;points=[];portConstraint=eastwest;" parent="U9TDEoEnXub9O5fyCvV4-11" vertex="1">
          <mxGeometry y="20" width="130" height="8" as="geometry" />
        </mxCell>
        <mxCell id="U9TDEoEnXub9O5fyCvV4-15" value="." style="html=1;align=center;spacingLeft=4;verticalAlign=top;strokeColor=none;fillColor=none;" parent="U9TDEoEnXub9O5fyCvV4-11" vertex="1">
          <mxGeometry y="28" width="130" height="25" as="geometry" />
        </mxCell>
        <mxCell id="U9TDEoEnXub9O5fyCvV4-16" value="" style="fontStyle=1;align=center;verticalAlign=top;childLayout=stackLayout;horizontal=1;horizontalStack=0;resizeParent=1;resizeParentMax=0;resizeLast=0;marginBottom=0;strokeColor=#d6b656;strokeWidth=2;fillColor=none;" parent="U9TDEoEnXub9O5fyCvV4-4" vertex="1">
          <mxGeometry x="10" y="270" width="130" height="53" as="geometry" />
        </mxCell>
        <mxCell id="U9TDEoEnXub9O5fyCvV4-17" value="Sessions &lt;br&gt;Management" style="html=1;align=left;spacingLeft=4;verticalAlign=middle;strokeColor=none;fillColor=none;fontStyle=1" parent="U9TDEoEnXub9O5fyCvV4-16" vertex="1">
          <mxGeometry width="130" height="20" as="geometry" />
        </mxCell>
        <mxCell id="U9TDEoEnXub9O5fyCvV4-18" value="" style="shape=ellipse;" parent="U9TDEoEnXub9O5fyCvV4-17" vertex="1">
          <mxGeometry x="1" width="20" height="16" relative="1" as="geometry">
            <mxPoint x="-25" y="7" as="offset" />
          </mxGeometry>
        </mxCell>
        <mxCell id="U9TDEoEnXub9O5fyCvV4-19" value="" style="line;strokeWidth=1;fillColor=none;align=left;verticalAlign=middle;spacingTop=-1;spacingLeft=3;spacingRight=3;rotatable=0;labelPosition=right;points=[];portConstraint=eastwest;" parent="U9TDEoEnXub9O5fyCvV4-16" vertex="1">
          <mxGeometry y="20" width="130" height="8" as="geometry" />
        </mxCell>
        <mxCell id="U9TDEoEnXub9O5fyCvV4-20" value="." style="html=1;align=center;spacingLeft=4;verticalAlign=top;strokeColor=none;fillColor=none;" parent="U9TDEoEnXub9O5fyCvV4-16" vertex="1">
          <mxGeometry y="28" width="130" height="25" as="geometry" />
        </mxCell>
        <mxCell id="U9TDEoEnXub9O5fyCvV4-21" value="" style="fontStyle=1;align=center;verticalAlign=top;childLayout=stackLayout;horizontal=1;horizontalStack=0;resizeParent=1;resizeParentMax=0;resizeLast=0;marginBottom=0;strokeColor=#d6b656;strokeWidth=2;fillColor=none;" parent="U9TDEoEnXub9O5fyCvV4-4" vertex="1">
          <mxGeometry x="10" y="210" width="130" height="53" as="geometry" />
        </mxCell>
        <mxCell id="U9TDEoEnXub9O5fyCvV4-22" value="System Config" style="html=1;align=left;spacingLeft=4;verticalAlign=middle;strokeColor=none;fillColor=none;fontStyle=1" parent="U9TDEoEnXub9O5fyCvV4-21" vertex="1">
          <mxGeometry width="130" height="20" as="geometry" />
        </mxCell>
        <mxCell id="U9TDEoEnXub9O5fyCvV4-23" value="" style="shape=ellipse;" parent="U9TDEoEnXub9O5fyCvV4-22" vertex="1">
          <mxGeometry x="1" width="20" height="16" relative="1" as="geometry">
            <mxPoint x="-25" y="7" as="offset" />
          </mxGeometry>
        </mxCell>
        <mxCell id="U9TDEoEnXub9O5fyCvV4-24" value="" style="line;strokeWidth=1;fillColor=none;align=left;verticalAlign=middle;spacingTop=-1;spacingLeft=3;spacingRight=3;rotatable=0;labelPosition=right;points=[];portConstraint=eastwest;" parent="U9TDEoEnXub9O5fyCvV4-21" vertex="1">
          <mxGeometry y="20" width="130" height="8" as="geometry" />
        </mxCell>
        <mxCell id="U9TDEoEnXub9O5fyCvV4-25" value="." style="html=1;align=center;spacingLeft=4;verticalAlign=top;strokeColor=none;fillColor=none;" parent="U9TDEoEnXub9O5fyCvV4-21" vertex="1">
          <mxGeometry y="28" width="130" height="25" as="geometry" />
        </mxCell>
        <mxCell id="U9TDEoEnXub9O5fyCvV4-41" value="" style="fontStyle=1;align=center;verticalAlign=top;childLayout=stackLayout;horizontal=1;horizontalStack=0;resizeParent=1;resizeParentMax=0;resizeLast=0;marginBottom=0;strokeColor=#d6b656;strokeWidth=2;fillColor=none;" parent="U9TDEoEnXub9O5fyCvV4-4" vertex="1">
          <mxGeometry x="10" y="330" width="130" height="53" as="geometry" />
        </mxCell>
        <mxCell id="U9TDEoEnXub9O5fyCvV4-42" value="Session&lt;br&gt;Operation Auditing" style="html=1;align=left;spacingLeft=4;verticalAlign=middle;strokeColor=none;fillColor=none;fontStyle=1" parent="U9TDEoEnXub9O5fyCvV4-41" vertex="1">
          <mxGeometry width="130" height="20" as="geometry" />
        </mxCell>
        <mxCell id="U9TDEoEnXub9O5fyCvV4-43" value="" style="shape=ellipse;" parent="U9TDEoEnXub9O5fyCvV4-42" vertex="1">
          <mxGeometry x="1" width="20" height="16" relative="1" as="geometry">
            <mxPoint x="-25" y="7" as="offset" />
          </mxGeometry>
        </mxCell>
        <mxCell id="U9TDEoEnXub9O5fyCvV4-44" value="" style="line;strokeWidth=1;fillColor=none;align=left;verticalAlign=middle;spacingTop=-1;spacingLeft=3;spacingRight=3;rotatable=0;labelPosition=right;points=[];portConstraint=eastwest;" parent="U9TDEoEnXub9O5fyCvV4-41" vertex="1">
          <mxGeometry y="20" width="130" height="8" as="geometry" />
        </mxCell>
        <mxCell id="U9TDEoEnXub9O5fyCvV4-45" value="." style="html=1;align=center;spacingLeft=4;verticalAlign=top;strokeColor=none;fillColor=none;" parent="U9TDEoEnXub9O5fyCvV4-41" vertex="1">
          <mxGeometry y="28" width="130" height="25" as="geometry" />
        </mxCell>
        <mxCell id="U9TDEoEnXub9O5fyCvV4-46" value="" style="fontStyle=1;align=center;verticalAlign=top;childLayout=stackLayout;horizontal=1;horizontalStack=0;resizeParent=1;resizeParentMax=0;resizeLast=0;marginBottom=0;strokeColor=#d6b656;strokeWidth=2;fillColor=none;" parent="U9TDEoEnXub9O5fyCvV4-4" vertex="1">
          <mxGeometry x="150" y="30" width="130" height="53" as="geometry" />
        </mxCell>
        <mxCell id="U9TDEoEnXub9O5fyCvV4-47" value="User Mgmt" style="html=1;align=left;spacingLeft=4;verticalAlign=middle;strokeColor=none;fillColor=none;fontStyle=1" parent="U9TDEoEnXub9O5fyCvV4-46" vertex="1">
          <mxGeometry width="130" height="20" as="geometry" />
        </mxCell>
        <mxCell id="U9TDEoEnXub9O5fyCvV4-48" value="" style="shape=ellipse;" parent="U9TDEoEnXub9O5fyCvV4-47" vertex="1">
          <mxGeometry x="1" width="20" height="16" relative="1" as="geometry">
            <mxPoint x="-25" y="7" as="offset" />
          </mxGeometry>
        </mxCell>
        <mxCell id="U9TDEoEnXub9O5fyCvV4-49" value="" style="line;strokeWidth=1;fillColor=none;align=left;verticalAlign=middle;spacingTop=-1;spacingLeft=3;spacingRight=3;rotatable=0;labelPosition=right;points=[];portConstraint=eastwest;" parent="U9TDEoEnXub9O5fyCvV4-46" vertex="1">
          <mxGeometry y="20" width="130" height="8" as="geometry" />
        </mxCell>
        <mxCell id="U9TDEoEnXub9O5fyCvV4-50" value="." style="html=1;align=center;spacingLeft=4;verticalAlign=top;strokeColor=none;fillColor=none;" parent="U9TDEoEnXub9O5fyCvV4-46" vertex="1">
          <mxGeometry y="28" width="130" height="25" as="geometry" />
        </mxCell>
        <mxCell id="U9TDEoEnXub9O5fyCvV4-86" value="" style="fontStyle=1;align=center;verticalAlign=top;childLayout=stackLayout;horizontal=1;horizontalStack=0;resizeParent=1;resizeParentMax=0;resizeLast=0;marginBottom=0;strokeColor=#d6b656;strokeWidth=2;fillColor=none;" parent="U9TDEoEnXub9O5fyCvV4-4" vertex="1">
          <mxGeometry x="150" y="390" width="130" height="53" as="geometry" />
        </mxCell>
        <mxCell id="U9TDEoEnXub9O5fyCvV4-87" value="Module &lt;br&gt;Permission Mgmt" style="html=1;align=left;spacingLeft=4;verticalAlign=middle;strokeColor=none;fillColor=none;fontStyle=1" parent="U9TDEoEnXub9O5fyCvV4-86" vertex="1">
          <mxGeometry width="130" height="20" as="geometry" />
        </mxCell>
        <mxCell id="U9TDEoEnXub9O5fyCvV4-88" value="" style="shape=ellipse;" parent="U9TDEoEnXub9O5fyCvV4-87" vertex="1">
          <mxGeometry x="1" width="20" height="16" relative="1" as="geometry">
            <mxPoint x="-25" y="7" as="offset" />
          </mxGeometry>
        </mxCell>
        <mxCell id="U9TDEoEnXub9O5fyCvV4-89" value="" style="line;strokeWidth=1;fillColor=none;align=left;verticalAlign=middle;spacingTop=-1;spacingLeft=3;spacingRight=3;rotatable=0;labelPosition=right;points=[];portConstraint=eastwest;" parent="U9TDEoEnXub9O5fyCvV4-86" vertex="1">
          <mxGeometry y="20" width="130" height="8" as="geometry" />
        </mxCell>
        <mxCell id="U9TDEoEnXub9O5fyCvV4-90" value="." style="html=1;align=center;spacingLeft=4;verticalAlign=top;strokeColor=none;fillColor=none;" parent="U9TDEoEnXub9O5fyCvV4-86" vertex="1">
          <mxGeometry y="28" width="130" height="25" as="geometry" />
        </mxCell>
        <mxCell id="U9TDEoEnXub9O5fyCvV4-96" value="" style="fontStyle=1;align=center;verticalAlign=top;childLayout=stackLayout;horizontal=1;horizontalStack=0;resizeParent=1;resizeParentMax=0;resizeLast=0;marginBottom=0;strokeColor=#d6b656;strokeWidth=2;fillColor=none;" parent="U9TDEoEnXub9O5fyCvV4-4" vertex="1">
          <mxGeometry x="150" y="330" width="130" height="53" as="geometry" />
        </mxCell>
        <mxCell id="U9TDEoEnXub9O5fyCvV4-97" value="Group Role Mgmt" style="html=1;align=left;spacingLeft=4;verticalAlign=middle;strokeColor=none;fillColor=none;fontStyle=1" parent="U9TDEoEnXub9O5fyCvV4-96" vertex="1">
          <mxGeometry width="130" height="20" as="geometry" />
        </mxCell>
        <mxCell id="U9TDEoEnXub9O5fyCvV4-98" value="" style="shape=ellipse;" parent="U9TDEoEnXub9O5fyCvV4-97" vertex="1">
          <mxGeometry x="1" width="20" height="16" relative="1" as="geometry">
            <mxPoint x="-25" y="7" as="offset" />
          </mxGeometry>
        </mxCell>
        <mxCell id="U9TDEoEnXub9O5fyCvV4-99" value="" style="line;strokeWidth=1;fillColor=none;align=left;verticalAlign=middle;spacingTop=-1;spacingLeft=3;spacingRight=3;rotatable=0;labelPosition=right;points=[];portConstraint=eastwest;" parent="U9TDEoEnXub9O5fyCvV4-96" vertex="1">
          <mxGeometry y="20" width="130" height="8" as="geometry" />
        </mxCell>
        <mxCell id="U9TDEoEnXub9O5fyCvV4-100" value="." style="html=1;align=center;spacingLeft=4;verticalAlign=top;strokeColor=none;fillColor=none;" parent="U9TDEoEnXub9O5fyCvV4-96" vertex="1">
          <mxGeometry y="28" width="130" height="25" as="geometry" />
        </mxCell>
        <mxCell id="1DGGIfdmjyYVYLLbDoYA-0" value="Title" parent="U9TDEoEnXub9O5fyCvV4-0" visible="0" />
        <mxCell id="U9TDEoEnXub9O5fyCvV4-2" value="&lt;font style=&quot;font-size: 12px&quot;&gt;Diagram: Base System Logical Module - Monitoring Specialist Functionality - High Level&lt;/font&gt;" style="text;strokeColor=none;fillColor=none;html=1;fontSize=12;fontStyle=2;verticalAlign=middle;align=left;shadow=0;glass=0;comic=0;opacity=30;fontColor=#808080;strokeWidth=1;" parent="1DGGIfdmjyYVYLLbDoYA-0" vertex="1">
          <mxGeometry x="120" y="660" width="520" height="20" as="geometry" />
        </mxCell>
        <mxCell id="1DGGIfdmjyYVYLLbDoYA-1" value="Information" parent="U9TDEoEnXub9O5fyCvV4-0" visible="0" />
        <UserObject label="" tooltip="ABOUT&#xa;&#xa;The Base Module provides Functionality that is pretty much common across all mature applications, from Diagnostics, through information about the system (who paid for it/who built it, who is supplying it/the reseller, the system name), through to the current Tenancy and User, its Media and what people think of it. &#xa;&#xa;&#xa;&#xa;Secondary Modules build on top of the Core module, adding Business Domain Specific functionality (described later)." id="U9TDEoEnXub9O5fyCvV4-3">
          <mxCell style="shape=image;html=1;verticalAlign=top;verticalLabelPosition=bottom;labelBackgroundColor=#ffffff;imageAspect=0;aspect=fixed;image=https://cdn1.iconfinder.com/data/icons/hawcons/32/699014-icon-28-information-128.png;shadow=0;dashed=0;fontFamily=Helvetica;fontSize=12;fontColor=#000000;align=center;strokeColor=#000000;fillColor=#505050;dashPattern=1 1;" parent="1DGGIfdmjyYVYLLbDoYA-1" vertex="1">
            <mxGeometry x="660" y="660" width="20" height="20" as="geometry" />
          </mxCell>
        </UserObject>
      </root>
    </mxGraphModel>
  </diagram>
</mxfile>
